<?xml version="1.0" standalone="no"?>
<!DOCTYPE svg PUBLIC "-//W3C//DTD SVG 20010904//EN"
 "http://www.w3.org/TR/2001/REC-SVG-20010904/DTD/svg10.dtd">
<svg version="1.0" xmlns="http://www.w3.org/2000/svg"
 width="16.000000pt" height="16.000000pt" viewBox="0 0 16.000000 16.000000"
 preserveAspectRatio="xMidYMid meet">
<metadata>
Created by potrace 1.11, written by Peter Selinger 2001-2013
</metadata>
<g transform="translate(0.000000,16.000000) scale(0.005882,-0.005882)"
fill="#000000" stroke="none">
<path d="M420 1505 l0 -675 118 0 117 0 0 248 c-1 314 7 359 76 431 45 48 86
65 159 65 112 1 185 -57 206 -164 5 -25 9 -165 9 -312 l0 -268 118 0 118 0 -1
304 c-1 336 -7 386 -62 488 -64 120 -179 178 -342 173 -80 -3 -101 -7 -152
-33 -32 -17 -72 -44 -89 -61 -16 -17 -32 -31 -35 -31 -3 0 -5 114 -5 253 l0
252 -117 3 -118 3 0 -676z"/>
<path d="M1889 2046 c-2 -2 -40 -7 -84 -11 -44 -3 -82 -9 -85 -11 -2 -3 -5
-58 -5 -122 l-1 -117 -87 -3 c-99 -3 -89 9 -89 -112 0 -107 -9 -97 87 -96 47
1 85 -1 86 -4 1 -3 2 -113 3 -245 2 -260 11 -314 60 -386 54 -78 162 -123 291
-120 67 1 175 28 181 45 4 10 -48 181 -57 191 -3 2 -25 -2 -49 -9 -87 -25
-149 -4 -176 59 -19 47 -21 461 -1 467 6 2 65 4 129 3 76 -1 118 2 121 9 2 6
3 52 3 101 l-1 90 -132 3 -133 3 1 122 c1 67 1 128 0 135 -1 11 -52 18 -62 8z"/>
</g>
</svg>
